# xmcd
#
# Track frame offsets: 
#        150
#        14824
#        29136
#        43038
#        61764
#        75810
#        91094
#        111022
#        125648
#        142127
#
# Disc length: 2271 seconds
#
# Revision: 1
# Processed by: cddbd v1.5.1PL0 Copyright (c) Steve Scherf et al.
# Submitted via: ExactAudioCopy v0.95a4
#
DISCID=8308dd0a
DTITLE=Bonga - Dendém de Açucar
DYEAR=1998
DGENRE=Folk
TTITLE0=Homem do Saco
TTITLE1=Kiuaias de Agora
TTITLE2=N'ga ku mono
TTITLE3=Matutar na cachimónia
TTITLE4=Areia quente "Instrumental"
TTITLE5=Dendém de açucar
TTITLE6=Passar da onda
TTITLE7=Kiguela
TTITLE8=Kota bué
TTITLE9=Ritmongoma "semi-instrumental"
EXTD=
EXTT0=
EXTT1=
EXTT2=
EXTT3=
EXTT4=
EXTT5=
EXTT6=
EXTT7=
EXTT8=
EXTT9=
PLAYORDER=
